<svg width="13" height="7" viewBox="0 0 13 7" fill="none" xmlns="http://www.w3.org/2000/svg">
<path d="M0.28615 0.267679C0.469427 0.0962844 0.717971 0 0.977125 0C1.23628 0 1.48482 0.0962844 1.6681 0.267679L6.5059 4.7932L11.3437 0.267679C11.528 0.101142 11.7749 0.00899045 12.0312 0.0110735C12.2874 0.0131565 12.5325 0.109307 12.7137 0.278816C12.895 0.448325 12.9977 0.677629 13 0.917342C13.0022 1.15705 12.9037 1.388 12.7257 1.56042L7.19688 6.73232C7.0136 6.90372 6.76505 7 6.5059 7C6.24675 7 5.9982 6.90372 5.81493 6.73232L0.28615 1.56042C0.102928 1.38898 0 1.15648 0 0.914052C0 0.671626 0.102928 0.439126 0.28615 0.267679Z" fill="#0D71B9"/>
</svg>
