<svg width="304" height="242" viewBox="0 0 304 242" fill="none" xmlns="http://www.w3.org/2000/svg">
<path d="M132.755 74.0816L133.596 73.4494L131.908 70.6074L131.067 71.2396L132.755 74.0816ZM129.38 68.3976L130.221 67.7654L128.534 64.9234L127.693 65.5556L129.38 68.3976ZM126.006 62.7136L126.847 62.0814L125.16 59.2394L124.319 59.8716L126.006 62.7136ZM122.632 57.0296L123.473 56.3974L121.786 53.5554L120.945 54.1876L122.632 57.0296ZM119.257 51.3456L120.098 50.7134L118.411 47.8714L117.57 48.5036L119.257 51.3456ZM115.883 45.6616L116.724 45.0294L115.037 42.1874L114.196 42.8196L115.883 45.6616ZM112.509 39.9776L113.35 39.3454L111.663 36.5034L110.822 37.1356L112.509 39.9776ZM109.134 34.2935L109.976 33.6614L108.288 30.8194L107.447 31.4515L109.134 34.2935ZM105.76 28.6095L106.601 27.9773L104.914 25.1353L104.073 25.7675L105.76 28.6095Z" fill="#8A81F7"/>
<path d="M175.626 32.2687L225.345 44.8027L225.123 45.9141L175.404 33.3802L175.626 32.2687Z" fill="#FE709E"/>
<path d="M133.935 21.8918L134.158 20.7812L131.194 20.0294L130.971 21.14L133.935 21.8918ZM128.002 20.3939L128.225 19.2833L125.261 18.5315L125.038 19.6421L128.002 20.3939ZM122.069 18.896L122.292 17.7854L119.328 17.0336L119.105 18.1443L122.069 18.896ZM116.136 17.3982L116.359 16.2875L113.395 15.5358L113.172 16.6464L116.136 17.3982ZM110.204 15.9003L110.426 14.7897L107.463 14.0379L107.24 15.1485L110.204 15.9003ZM104.271 14.4024L104.494 13.2918L101.53 12.54L101.307 13.6506L104.271 14.4024ZM98.3377 12.9045L98.5607 11.7939L95.5968 11.0421L95.3738 12.1527L98.3377 12.9045Z" fill="#FE709E"/>
<path d="M106.306 121.47L149.117 80.1623L188.908 41.773L26.4125 30.6031L106.308 121.476L106.306 121.47Z" fill="url(#paint0_linear_42_52)"/>
<path d="M26.4127 30.6031L158.364 71.2479L152.015 115.176L144.834 84.1502L26.4127 30.6031Z" fill="url(#paint1_linear_42_52)"/>
<path d="M128.932 99.6424L144.834 84.1502L152.015 115.176L128.932 99.6424Z" fill="#5166E0"/>
<path d="M91.6884 328.917L92.0786 328.081C91.321 327.616 90.5709 327.094 89.8553 326.533L89.3784 327.311C90.1277 327.899 90.905 328.439 91.6896 328.922L91.6884 328.917ZM87.2285 325.426L87.782 324.719C87.1337 324.089 86.4929 323.403 85.8794 322.684L85.26 323.329C85.8935 324.072 86.5573 324.778 87.2297 325.431L87.2285 325.426ZM83.4696 321.038L84.1433 320.465C83.6082 319.721 83.0776 318.925 82.5701 318.098L81.8569 318.606C82.3735 319.451 82.9187 320.268 83.4696 321.038ZM80.4084 316.066L81.1544 315.614C80.7188 314.789 80.2944 313.92 79.8885 313.036L79.1139 313.43C79.5248 314.332 79.9583 315.219 80.4084 316.066ZM77.9714 310.724L78.7678 310.38C78.4201 309.496 78.0871 308.583 77.7805 307.668L76.9664 307.962C77.2821 308.894 77.6199 309.826 77.9756 310.723L77.9714 310.724ZM148.562 287.348C149.396 287.13 150.24 286.884 151.074 286.63L150.798 285.697C149.973 285.948 149.136 286.188 148.31 286.404L148.556 287.344L148.562 287.348ZM146.031 287.975L145.81 287.028C144.964 287.219 144.112 287.402 143.28 287.56L143.476 288.513C144.316 288.354 145.178 288.173 146.032 287.98L146.031 287.975ZM153.576 285.804C154.391 285.481 155.195 285.079 155.966 284.606L155.511 283.755C154.778 284.203 154.013 284.584 153.239 284.893L153.576 285.804ZM140.9 288.951L140.734 287.995C139.885 288.121 139.024 288.236 138.172 288.334L138.307 289.293C139.172 289.193 140.042 289.08 140.9 288.951ZM76.093 305.155L76.9249 304.912C76.7806 304.412 76.6459 303.915 76.5154 303.417C76.4022 302.984 76.2919 302.545 76.1883 302.115L75.344 302.311C75.4501 302.751 75.5616 303.194 75.6773 303.636C75.8103 304.144 75.9474 304.651 76.093 305.155ZM135.698 289.539L135.59 288.577C134.729 288.642 133.859 288.689 132.998 288.718L133.076 289.683C133.946 289.651 134.824 289.602 135.694 289.54L135.698 289.539ZM158.152 283.019C158.839 282.427 159.489 281.779 160.081 281.082L159.428 280.398C158.862 281.059 158.246 281.683 157.591 282.241L158.148 283.02L158.152 283.019ZM130.455 289.726L130.407 288.758C129.552 288.756 128.678 288.738 127.804 288.701L127.82 289.666C128.702 289.702 129.585 289.722 130.451 289.727L130.455 289.726ZM125.191 289.51L125.203 288.547C124.348 288.48 123.476 288.397 122.604 288.298L122.564 289.258C123.441 289.36 124.328 289.445 125.191 289.51ZM161.717 278.829C162.212 278.016 162.637 277.161 162.987 276.291L162.184 275.858C161.854 276.683 161.448 277.493 160.981 278.258L161.717 278.829ZM119.939 288.91L120.006 287.953C119.149 287.826 118.277 287.677 117.412 287.521L117.317 288.476C118.187 288.635 119.068 288.781 119.936 288.916L119.939 288.91ZM75.5786 299.29C75.3923 298.339 75.2312 297.381 75.0888 296.443L74.2295 296.548C74.3715 297.5 74.5375 298.477 74.7275 299.442L75.5786 299.29ZM114.709 287.952L114.828 287.007C113.973 286.818 113.106 286.618 112.249 286.405L112.102 287.348C112.964 287.565 113.841 287.768 114.705 287.954L114.709 287.952ZM163.823 273.514C164.022 272.548 164.14 271.562 164.16 270.577L163.289 270.498C163.265 271.419 163.158 272.342 162.969 273.245L163.823 273.514ZM109.514 286.664L109.68 285.726C108.845 285.497 107.987 285.245 107.12 284.979L106.933 285.907C107.804 286.172 108.672 286.427 109.512 286.659L109.514 286.664ZM74.7337 293.581C74.6384 292.601 74.5648 291.636 74.5244 290.712L73.6494 290.705C73.6905 291.649 73.7637 292.629 73.8639 293.628L74.7325 293.577L74.7337 293.581ZM104.37 285.096L104.576 284.172C103.733 283.891 102.892 283.603 102.047 283.302L101.822 284.22C102.67 284.521 103.522 284.815 104.37 285.096ZM163.957 267.595C163.874 267.074 163.763 266.545 163.626 266.023C163.509 265.576 163.373 265.125 163.217 264.683L162.406 264.986C162.55 265.4 162.679 265.824 162.788 266.243C162.916 266.732 163.018 267.223 163.097 267.714L163.957 267.595ZM99.2902 283.29L99.5305 282.378C98.6961 282.063 97.8633 281.739 97.0239 281.406L96.7685 282.312C97.6092 282.649 98.4503 282.972 99.286 283.291L99.2902 283.29ZM74.489 287.857C74.503 287.26 74.5303 286.68 74.5746 286.131C74.6045 285.766 74.6374 285.396 74.6745 285.024L73.8087 284.864C73.7699 285.246 73.734 285.622 73.7053 285.991C73.6605 286.556 73.6298 287.157 73.6165 287.773L74.4878 287.852L74.489 287.857ZM94.2622 281.289L94.5284 280.39C93.7033 280.044 92.8728 279.693 92.044 279.332L91.764 280.23C92.597 280.589 93.4287 280.945 94.258 281.29L94.2622 281.289ZM161.253 262.413L161.997 261.952C161.538 261.108 161.002 260.273 160.405 259.464L159.743 260.05C160.311 260.816 160.819 261.612 161.253 262.413ZM89.2823 279.13L89.5732 278.24C88.7557 277.871 87.9328 277.499 87.1075 277.117L86.8112 278.003C87.6365 278.385 88.4606 278.763 89.2823 279.13ZM75.0419 282.22C75.1928 281.291 75.3742 280.359 75.581 279.455L74.7317 279.17C74.5215 280.094 74.3366 281.047 74.1822 281.997L75.0419 282.22ZM157.949 257.916L158.538 257.24C157.901 256.567 157.206 255.9 156.466 255.259L155.95 256.008C156.662 256.625 157.336 257.268 157.95 257.921L157.949 257.916ZM84.3466 276.849L84.6525 275.965C83.8397 275.58 83.0215 275.191 82.2009 274.793L81.8895 275.673C82.7102 276.072 83.5284 276.461 84.3466 276.849ZM76.286 276.743C76.5463 275.856 76.8426 274.969 77.1631 274.107L76.3538 273.7C76.0286 274.579 75.7247 275.488 75.4567 276.397L76.2902 276.742L76.286 276.743ZM79.4414 274.48L79.7581 273.603C78.9471 273.207 78.1336 272.802 77.3201 272.397L76.9992 273.275C77.8169 273.679 78.6304 274.084 79.4414 274.48ZM153.8 254.294L154.249 253.498C153.519 252.965 152.741 252.44 151.933 251.933L151.537 252.766C152.328 253.257 153.09 253.771 153.8 254.294ZM78.2075 271.562C78.5851 270.729 78.9915 269.904 79.4204 269.114L78.6636 268.583C78.2271 269.396 77.8076 270.239 77.4223 271.094L78.2075 271.562ZM74.5629 272.059L74.8851 271.185C74.0758 270.779 73.2665 270.373 72.4547 269.957L72.1283 270.831C72.9443 271.246 73.7536 271.652 74.5629 272.059ZM149.188 251.405L149.535 250.541C149.045 250.277 148.547 250.016 148.027 249.755C147.712 249.596 147.398 249.442 147.082 249.293L146.776 250.178C147.083 250.323 147.395 250.473 147.704 250.628C148.214 250.882 148.707 251.139 149.186 251.396L149.188 251.405ZM80.793 266.78C81.2761 266.025 81.7892 265.283 82.3235 264.57L81.6368 263.931C81.0924 264.656 80.5619 265.418 80.07 266.19L80.793 266.78ZM69.698 269.603L70.0243 268.729L68.2576 267.83C68.0397 267.716 67.8177 267.603 67.5998 267.489L67.2626 268.356C67.4859 268.474 67.7092 268.591 67.9312 268.704L69.698 269.603ZM144.327 249.1L144.592 248.196C143.758 247.852 142.903 247.528 142.052 247.233L141.832 248.155C142.669 248.444 143.504 248.763 144.327 249.1ZM83.999 262.503C84.5745 261.845 85.1872 261.192 85.8097 260.577L85.2093 259.84C84.5695 260.475 83.9454 261.136 83.3527 261.813L83.999 262.503ZM64.8584 267.006L65.2378 266.163C64.4785 265.708 63.7023 265.223 62.9228 264.708L62.5068 265.531C63.2958 266.048 64.0841 266.545 64.8584 267.006ZM139.303 247.355L139.475 246.42C138.609 246.175 137.733 245.957 136.867 245.761L136.743 246.708C137.594 246.898 138.456 247.114 139.303 247.355ZM87.7485 258.798C88.4039 258.24 89.0934 257.693 89.7946 257.172L89.2824 256.362C88.5657 256.891 87.8619 257.452 87.1922 258.024L87.7498 258.803L87.7485 258.798ZM134.165 246.217L134.242 245.262C133.368 245.124 132.483 245.009 131.605 244.922L131.575 245.885C132.439 245.97 133.311 246.084 134.166 246.222L134.165 246.217ZM91.9369 255.692C92.654 255.233 93.4013 254.786 94.163 254.361L93.7344 253.493C92.9601 253.922 92.1973 254.378 91.4659 254.851L91.9369 255.692ZM60.2125 263.95L60.6557 263.146C59.9182 262.62 59.1732 262.067 58.4384 261.5L57.9669 262.282C58.7126 262.856 59.4683 263.417 60.2125 263.95ZM128.978 245.695L128.962 244.73C128.094 244.696 127.208 244.681 126.324 244.692L126.384 245.656C127.25 245.645 128.126 245.657 128.978 245.695ZM96.4578 253.172C97.2218 252.806 98.0158 252.453 98.8147 252.118L98.4704 251.213C97.6589 251.551 96.8523 251.908 96.0728 252.283L96.4578 253.172ZM123.792 245.761L123.692 244.798C122.833 244.852 121.954 244.931 121.08 245.029L121.214 245.989C122.08 245.893 122.946 245.812 123.792 245.761ZM101.23 251.184C102.046 250.88 102.86 250.587 103.667 250.3L103.359 249.381C102.544 249.67 101.726 249.964 100.91 250.268L101.23 251.184ZM118.655 246.337L118.485 245.381C117.638 245.513 116.774 245.669 115.91 245.84L116.11 246.792C116.962 246.625 117.817 246.471 118.651 246.338L118.655 246.337ZM106.122 249.467C106.951 249.195 107.778 248.933 108.592 248.69L108.32 247.756C107.502 248 106.663 248.265 105.83 248.538L106.122 249.467ZM113.585 247.342L113.356 246.397C112.513 246.598 111.669 246.814 110.824 247.04L111.07 247.981C111.916 247.754 112.747 247.542 113.585 247.342ZM55.7652 260.542L56.2596 259.779C55.5529 259.2 54.84 258.598 54.1318 257.979L53.6157 258.727C54.3293 259.35 55.053 259.959 55.7652 260.542ZM51.5114 256.846L52.0462 256.118C51.3619 255.488 50.6727 254.839 50.0069 254.195L49.4546 254.907C50.1271 255.56 50.8217 256.213 51.5114 256.846ZM47.4413 252.911L48.0123 252.219C47.3542 251.552 46.6966 250.87 46.0611 250.187L45.4725 250.864C46.1176 251.549 46.7777 252.241 47.4425 252.916L47.4413 252.911ZM43.5472 248.76L44.1491 248.1C43.592 247.477 43.0487 246.855 42.5192 246.235L42.2913 245.963L41.6653 246.599L41.8986 246.875C42.4348 247.503 42.9835 248.129 43.5418 248.756L43.5472 248.76ZM39.8781 244.338L40.5386 243.748C39.9734 242.992 39.4284 242.21 38.9086 241.421L38.2123 241.96C38.7413 242.767 39.2996 243.565 39.8781 244.338ZM36.6845 239.476L37.4135 238.994C36.9365 238.164 36.4823 237.318 36.0628 236.468L35.3011 236.893C35.7297 237.761 36.1942 238.629 36.6845 239.476ZM235.461 183.372L235.943 183.246L235.697 182.306L235.215 182.432C234.541 182.608 233.865 182.78 233.185 182.938L233.415 183.883C234.097 183.719 234.783 183.55 235.461 183.372ZM238.457 182.533C239.3 182.282 240.14 182.017 240.946 181.746L240.65 180.818C239.846 181.084 239.019 181.346 238.18 181.596L238.451 182.53L238.457 182.533ZM230.869 184.454L230.66 183.503C229.823 183.677 228.968 183.846 228.118 184.003L228.309 184.958C229.164 184.8 230.025 184.635 230.87 184.459L230.869 184.454ZM243.416 180.883C244.24 180.577 245.062 180.262 245.854 179.934L245.508 179.024C244.724 179.345 243.911 179.663 243.094 179.963L243.41 180.88L243.416 180.883ZM225.731 185.387L225.561 184.431C224.709 184.564 223.845 184.684 222.996 184.791L223.144 185.752C224.002 185.643 224.875 185.52 225.731 185.387ZM248.26 178.897C249.064 178.531 249.86 178.151 250.628 177.765L250.227 176.884C249.472 177.268 248.685 177.645 247.888 178.004L248.257 178.903L248.26 178.897ZM220.549 186.049L220.418 185.089C219.551 185.18 218.69 185.26 217.832 185.334L217.95 186.298C218.808 186.224 219.678 186.142 220.549 186.049ZM34.0825 234.222L34.8699 233.86C34.4975 232.968 34.1532 232.063 33.8486 231.173L33.0356 231.471C33.3464 232.385 33.701 233.312 34.0838 234.227L34.0825 234.222ZM215.343 186.498L215.243 185.534C214.371 185.591 213.507 185.642 212.645 185.686L212.731 186.648C213.598 186.607 214.467 186.556 215.343 186.498ZM252.95 176.529C253.731 176.088 254.493 175.632 255.215 175.172L254.748 174.329C254.038 174.782 253.286 175.229 252.518 175.662L252.95 176.529ZM210.117 186.755L210.044 185.789C209.169 185.817 208.3 185.833 207.438 185.843L207.498 186.807C208.364 186.797 209.237 186.779 210.116 186.75L210.117 186.755ZM257.415 173.692C258.15 173.163 258.859 172.62 259.529 172.068L258.983 171.281C258.327 171.82 257.631 172.359 256.91 172.874L257.415 173.692ZM204.878 186.82L204.831 185.852C203.956 185.845 203.085 185.837 202.219 185.812L202.248 186.779C203.117 186.798 203.994 186.815 204.872 186.816L204.878 186.82ZM199.629 186.696L199.614 185.73C198.74 185.693 197.869 185.649 197.001 185.6L197.006 186.563C197.879 186.611 198.754 186.654 199.632 186.69L199.629 186.696ZM261.537 170.281C262.199 169.645 262.832 168.982 263.41 168.318L262.764 167.628C262.203 168.273 261.588 168.916 260.944 169.537L261.537 170.281ZM194.375 186.398L194.383 185.436C193.507 185.374 192.637 185.3 191.767 185.226L191.746 186.191C192.622 186.269 193.496 186.341 194.376 186.403L194.375 186.398ZM32.1753 228.646L33.0134 228.427L32.9826 228.309C32.7475 227.411 32.5472 226.509 32.3823 225.622L31.5287 225.765C31.7009 226.68 31.9087 227.61 32.1499 228.532L32.1807 228.65L32.1753 228.646ZM265.108 166.166C265.65 165.396 266.145 164.603 266.58 163.8L265.823 163.27C265.406 164.037 264.931 164.805 264.404 165.546L265.104 166.167L265.108 166.166ZM189.124 185.938L189.154 184.976C188.28 184.888 187.409 184.794 186.541 184.694L186.502 185.655C187.374 185.753 188.25 185.85 189.124 185.938ZM183.881 185.341L183.93 184.383C183.06 184.274 182.192 184.159 181.32 184.041L181.262 185.001C182.135 185.119 183.006 185.233 183.876 185.342L183.881 185.341ZM178.648 184.63L178.712 183.674C177.846 183.548 176.979 183.418 176.108 183.29L176.037 184.248C176.909 184.382 177.78 184.51 178.645 184.636L178.648 184.63ZM267.769 161.228C268.108 160.35 268.411 159.437 268.667 158.516L267.833 158.186C267.586 159.075 267.294 159.96 266.966 160.81L267.775 161.231L267.769 161.228ZM31.9698 222.78C31.8693 221.832 31.8107 220.872 31.793 219.932L30.919 219.895C30.9357 220.865 30.9975 221.854 31.0983 222.838L31.9656 222.781L31.9698 222.78ZM173.426 183.836L173.503 182.881C172.635 182.747 171.77 182.606 170.895 182.463L170.818 183.418C171.693 183.561 172.562 183.7 173.43 183.835L173.426 183.836ZM168.203 182.992L168.285 182.036L165.677 181.603L165.596 182.559L168.203 182.992ZM269.306 155.705C269.477 154.771 269.609 153.802 269.703 152.827L268.834 152.673C268.745 153.616 268.615 154.554 268.449 155.462L269.306 155.705ZM31.8693 217.093C31.8908 216.816 31.9111 216.534 31.9422 216.26C32.008 215.605 32.0947 214.944 32.1977 214.294L31.3381 214.071C31.2274 214.744 31.1373 215.425 31.0722 216.101C31.0448 216.389 31.0173 216.678 30.9982 216.964L31.8693 217.093ZM162.986 182.116L163.067 181.16L160.459 180.722L160.378 181.678L162.986 182.116ZM157.77 181.245L157.852 180.289C156.985 180.144 156.116 180.005 155.241 179.862L155.164 180.817C156.039 180.96 156.909 181.104 157.77 181.245ZM269.863 149.896C269.881 148.941 269.865 147.956 269.812 146.965L268.939 146.967C268.991 147.933 269.005 148.894 268.988 149.823L269.863 149.896ZM152.556 180.379L152.633 179.424C151.768 179.284 150.899 179.149 150.022 179.012L149.95 179.97C150.828 180.108 151.696 180.242 152.557 180.384L152.556 180.379ZM32.7723 211.545C33.0008 210.656 33.2779 209.765 33.5875 208.895L32.7711 208.495C32.4509 209.393 32.1674 210.312 31.9324 211.227L32.7753 211.539L32.7723 211.545ZM147.339 179.574L147.406 178.616C146.54 178.486 145.668 178.358 144.789 178.231L144.726 179.187C145.601 179.315 146.472 179.444 147.338 179.569L147.339 179.574ZM142.118 178.82L142.176 177.86C141.307 177.74 140.434 177.622 139.557 177.505L139.504 178.464C140.375 178.577 141.244 178.697 142.112 178.816L142.118 178.82ZM34.6235 206.352C34.9964 205.536 35.4137 204.718 35.8606 203.928L35.1097 203.386C34.651 204.199 34.2219 205.04 33.8371 205.88L34.6193 206.353L34.6235 206.352ZM269.564 144.034C269.453 143.079 269.308 142.097 269.133 141.122L268.277 141.256C268.447 142.211 268.59 143.169 268.696 144.106L269.56 144.036L269.564 144.034ZM136.895 178.126L136.944 177.169C136.074 177.06 135.199 176.952 134.326 176.849L134.282 177.81C135.155 177.913 136.024 178.018 136.895 178.126ZM131.669 177.509L131.709 176.549C130.837 176.451 129.962 176.358 129.088 176.27L129.058 177.233C129.932 177.321 130.803 177.414 131.673 177.508L131.669 177.509ZM37.2778 201.627C37.767 200.896 38.2977 200.17 38.8542 199.456L38.1805 198.798C37.6097 199.525 37.0672 200.275 36.5679 201.019L37.2807 201.622L37.2778 201.627ZM126.438 176.974L126.464 176.012C125.587 175.93 124.716 175.852 123.838 175.78L123.821 176.744C124.695 176.817 125.567 176.895 126.438 176.974ZM268.538 138.233C268.43 137.769 268.316 137.316 268.198 136.865C268.068 136.366 267.929 135.87 267.789 135.389L266.959 135.636C267.097 136.113 267.232 136.595 267.36 137.084C267.476 137.526 267.588 137.974 267.694 138.429L268.539 138.237L268.538 138.233ZM121.202 176.54L121.21 175.578C120.334 175.516 119.458 175.454 118.585 175.401L118.586 176.366C119.46 176.419 120.331 176.477 121.202 176.54ZM40.5634 197.416C41.1426 196.772 41.7577 196.128 42.3958 195.504L41.7953 194.767C41.1472 195.404 40.5177 196.061 39.9242 196.719L40.5592 197.417L40.5634 197.416ZM115.968 176.217L115.957 175.25C115.082 175.208 114.207 175.165 113.33 175.134L113.349 176.098C114.222 176.131 115.092 176.17 115.967 176.212L115.968 176.217ZM44.3309 193.711C44.9838 193.143 45.6642 192.578 46.3562 192.04L45.8244 191.24C45.1222 191.79 44.4304 192.363 43.7662 192.939L44.3309 193.711ZM110.737 176.023L110.708 175.056C109.833 175.034 108.956 175.017 108.081 175.01L108.123 175.974C108.994 175.982 109.867 176 110.736 176.019L110.737 176.023ZM105.511 175.969L105.46 175.003C104.583 175.006 103.713 175.018 102.839 175.03L102.904 175.998C103.773 175.982 104.643 175.97 105.515 175.968L105.511 175.969ZM48.4597 190.48C49.167 189.983 49.8947 189.496 50.6274 189.028L50.1606 188.185C49.4153 188.657 48.6762 189.152 47.9618 189.655L48.4597 190.48ZM266.081 132.881L266.893 132.578C266.568 131.648 266.223 130.723 265.854 129.825L265.06 130.178C265.42 131.059 265.76 131.965 266.075 132.877L266.081 132.881ZM100.297 176.062L100.219 175.098C99.3456 175.131 98.4733 175.168 97.6023 175.21L97.6939 176.176C98.5595 176.13 99.4277 176.094 100.297 176.062ZM52.8569 187.675C53.6007 187.25 54.3678 186.828 55.137 186.43L54.7281 185.553C53.9476 185.958 53.1721 186.382 52.4212 186.815L52.8569 187.675ZM95.0935 176.334L94.9893 175.371C94.119 175.433 93.2499 175.5 92.3832 175.576L92.5013 176.54C93.3637 176.465 94.2286 176.4 95.0948 176.339L95.0935 176.334ZM89.9117 176.791L89.7811 175.83C88.914 175.921 88.0493 176.022 87.1871 176.132L87.3357 177.093C88.1937 176.984 89.0542 176.885 89.9159 176.79L89.9117 176.791ZM57.4609 185.284C58.2386 184.92 59.0326 184.567 59.8274 184.233L59.4789 183.329C58.677 183.67 57.8704 184.027 57.0843 184.393L57.4609 185.284ZM84.7606 177.451L84.5953 176.494C83.7338 176.624 82.8736 176.759 82.0158 176.903L82.1937 177.856C83.0461 177.708 83.8979 177.576 84.7552 177.447L84.7606 177.451ZM62.2298 183.267C63.0308 182.957 63.8521 182.657 64.6592 182.37L64.3513 181.451C63.5359 181.74 62.7116 182.046 61.9023 182.358L62.2311 183.272L62.2298 183.267ZM79.647 178.322L79.451 177.368C78.5982 177.531 77.7448 177.709 76.8969 177.891L77.1137 178.839C77.9562 178.654 78.8025 178.482 79.6499 178.316L79.647 178.322ZM67.1099 181.538C67.9273 181.274 68.7597 181.016 69.582 180.77L69.3107 179.836C68.48 180.084 67.6434 180.343 66.8176 180.609L67.1057 181.539L67.1099 181.538ZM74.5852 179.425L74.3516 178.482C73.7331 178.633 73.1189 178.784 72.5029 178.945L71.824 179.123L72.0702 180.064L72.749 179.886C73.3609 179.726 73.9685 179.567 74.584 179.421L74.5852 179.425ZM263.91 127.545L264.683 127.147C264.273 126.264 263.849 125.38 263.414 124.524L262.659 124.958C263.087 125.805 263.509 126.68 263.911 127.55L263.91 127.545ZM261.316 122.41L262.054 121.945C261.592 121.101 261.106 120.254 260.611 119.424L259.891 119.923C260.379 120.745 260.858 121.585 261.317 122.414L261.316 122.41ZM258.389 117.487L259.092 116.957C258.578 116.157 258.039 115.348 257.491 114.552L256.808 115.107C257.35 115.895 257.882 116.696 258.388 117.483L258.389 117.487ZM255.154 112.792L255.816 112.206C255.253 111.444 254.667 110.673 254.071 109.919L253.429 110.529C254.018 111.275 254.597 112.033 255.154 112.792ZM251.636 108.331L252.262 107.694C251.657 106.973 251.023 106.245 250.388 105.531L249.786 106.192C250.414 106.897 251.041 107.617 251.641 108.334L251.636 108.331ZM247.871 104.11L248.454 103.43C247.8 102.742 247.133 102.057 246.466 101.392L245.902 102.093C246.561 102.749 247.223 103.43 247.867 104.111L247.871 104.11ZM243.883 100.129L244.429 99.408C243.752 98.7711 243.05 98.1257 242.346 97.4907L241.818 98.227C242.519 98.8525 243.211 99.4954 243.883 100.129ZM239.711 96.3865L240.218 95.6359C239.514 95.036 238.782 94.4287 238.05 93.8365L237.561 94.6027C238.288 95.1912 239.009 95.7914 239.707 96.3876L239.711 96.3865ZM235.381 92.8768L235.852 92.0951C235.112 91.5251 234.363 90.9572 233.615 90.4092L233.16 91.2017C233.898 91.7472 234.646 92.3104 235.379 92.8721L235.381 92.8768ZM230.914 89.5836L231.352 88.7755C230.594 88.2403 229.83 87.7166 229.058 87.1952L228.636 88.014C229.402 88.5272 230.162 89.0519 230.914 89.5836ZM226.333 86.5013L226.738 85.6717C225.962 85.1712 225.179 84.6776 224.395 84.1946L224 85.0315C224.781 85.5156 225.557 86.0009 226.327 86.4977L226.333 86.5013ZM221.654 83.6105L222.032 82.7628C221.243 82.296 220.446 81.8361 219.647 81.3821L219.284 82.2359C220.078 82.6864 220.87 83.1473 221.654 83.6105ZM216.894 80.9066L217.246 80.0456C216.442 79.6078 215.635 79.1759 214.829 78.7486L214.492 79.6157C215.297 80.0383 216.098 80.4667 216.898 80.9055L216.894 80.9066ZM212.066 78.3713L212.393 77.4969C211.578 77.087 210.764 76.6819 209.944 76.2836L209.633 77.1641C210.448 77.5588 211.261 77.9639 212.066 78.3713ZM207.186 75.9953L207.487 75.1076C206.664 74.7199 205.84 74.3426 205.017 73.9701L204.727 74.8603C205.549 75.2328 206.369 75.6112 207.186 75.9953ZM202.255 73.7636L202.535 72.8662C201.706 72.5053 200.874 72.1501 200.044 71.7996L199.773 72.6996C200.602 73.0453 201.426 73.4027 202.255 73.7636ZM197.283 71.6728L197.544 70.7704C196.708 70.4315 195.873 70.0974 195.039 69.7679L194.789 70.6776C195.621 71.0023 196.452 71.3376 197.285 71.6775L197.283 71.6728ZM192.282 69.7055L192.522 68.7934C191.683 68.4755 190.844 68.1624 190.001 67.8503L189.77 68.765C190.608 69.0734 191.442 69.3877 192.282 69.7055ZM187.248 67.8524L187.473 66.9341C186.624 66.6337 185.776 66.3332 184.935 66.0458L184.719 66.9665C185.561 67.2587 186.405 67.5555 187.252 67.8513L187.248 67.8524ZM182.174 66.105L182.384 65.1806C181.531 64.8965 180.683 64.6159 179.832 64.3412L179.631 65.2681C180.478 65.5439 181.325 65.8198 182.174 66.105ZM177.081 64.4533L177.276 63.5228C176.418 63.2549 175.565 62.9907 174.714 62.7312L174.527 63.6595C175.374 63.9201 176.226 64.1796 177.08 64.4486L177.081 64.4533Z" fill="#8A81F7"/>
<path d="M31.6119 51.824L32.605 51.5734L31.9615 48.4124L34.7734 47.6948L34.5454 46.5842L30.7506 47.5524L31.6119 51.824Z" fill="#8A81F7"/>
<path d="M31.6396 47.4212L90.3298 82.4566L89.8546 83.4626L31.1643 48.4272L31.6396 47.4212Z" fill="#8A81F7"/>
<path d="M93.2106 99.2667L93.6768 98.2586L90.9814 96.681L90.5152 97.689L93.2106 99.2667ZM87.8199 96.1114L88.286 95.1033L85.5906 93.5257L85.1245 94.5338L87.8199 96.1114ZM82.4291 92.9562L82.8952 91.9481L80.1998 90.3704L79.7337 91.3785L82.4291 92.9562ZM77.0383 89.8009L77.5045 88.7928L74.8091 87.2152L74.343 88.2233L77.0383 89.8009ZM71.6476 86.6457L72.1137 85.6376L69.4183 84.0599L68.9522 85.068L71.6476 86.6457ZM66.2568 83.4904L66.7229 82.4823L64.0275 80.9047L63.5614 81.9128L66.2568 83.4904ZM60.866 80.3352L61.3322 79.3271L58.6368 77.7495L58.1707 78.7575L60.866 80.3352Z" fill="#8A81F7"/>
<path d="M98.9782 30.9989L101.459 37.021L102.893 34.3347L101.004 31.5453L98.9782 30.9989Z" fill="#F9C2C5"/>
<path d="M99.9143 32.7897L99.1116 31.5531C99.1116 31.5531 98.8762 30.6067 98.889 30.407C98.8948 30.3304 99.0669 30.2332 99.1966 29.9179C99.2724 29.7234 99.4519 29.7175 99.5276 29.7086C99.632 29.6883 99.7029 29.6282 99.9241 29.5446C99.9628 29.5313 100.321 29.6996 100.373 29.759C100.412 29.7979 100.758 29.9048 100.796 30.0483C100.845 30.2187 100.718 30.4696 100.662 30.6314C100.615 30.7623 100.56 30.7729 100.499 30.75C100.42 30.7188 100.381 30.5931 100.417 30.3307C100.417 30.3307 100.386 30.5399 100.499 30.75C100.652 31.0336 101.219 31.0569 101.407 31.2814C101.714 31.6395 101.628 32.2074 101.628 32.2074L99.9165 32.8009L99.9143 32.7897Z" fill="#F9C2C5"/>
<path d="M100.944 36.8191C100.998 37.0698 101.293 37.4186 101.518 37.5142C109.656 41.0685 110.105 40.1111 110.706 38.0797C111.062 36.8793 110.46 35.801 108.401 35.1391C105.743 34.2861 104.511 34.3222 103.414 33.9086C103.064 33.7794 102.543 33.6774 101.709 34.6691C101.223 35.2508 100.826 36.3142 100.938 36.8145L100.944 36.8191Z" fill="#F44785"/>
<path d="M109.262 47.759C109.467 47.6438 109.66 47.4961 109.67 47.2273C109.739 45.1658 110.276 40.6753 110.256 39.2694C110.236 37.8346 109.501 34.7688 108.264 34.9916C106.697 35.2669 107.069 37.7127 106.87 39.0277C106.556 41.0787 106.128 45.3044 106.399 47.0734C106.461 47.4733 106.556 47.774 107.787 48.0804C108.101 48.1585 108.575 48.1535 109.267 47.758L109.262 47.759Z" fill="#F44785"/>
<path d="M115.194 56.6965L115.582 65.7937C115.584 65.8282 115.592 65.8673 115.604 65.9055L116.152 67.7716C116.152 67.7716 116.16 67.8108 116.164 67.8331C116.198 68.0587 116.684 71.3873 116.684 71.3873L107.026 67.049L105.617 59.7919C105.617 59.7919 105.61 59.7528 105.605 59.7304L105.243 53.7204C105.237 53.5535 105.316 53.4046 105.448 53.3384L112.618 50.0489C112.806 49.9544 113.033 50.0611 113.116 50.277L114.932 55.0533C114.943 55.0859 114.954 55.1129 114.955 55.1474L115.191 56.6564C115.191 56.6564 115.198 56.6899 115.201 56.7067L115.194 56.6965Z" fill="#3A3AAA"/>
<path d="M104.629 38.0125L107.124 37.4642L108.408 36.0776L108.672 42.246L104.629 38.0125Z" fill="#F44785"/>
<path d="M102.709 39.8706C103.448 39.0251 107.505 35.0694 107.505 35.0694C108.063 34.5143 109.861 35.0529 110.167 35.3532C111.093 36.2699 111.378 37.6591 111.612 38.9713C112.016 41.2368 111.719 43.4005 112.461 46.8245C112.721 48.0273 113.321 49.2335 113.211 49.9163C113.11 50.5392 112.596 51.1612 111.989 51.7026C111.361 52.2657 108.779 53.9332 107.61 54.2413C106.986 54.4031 105.262 54.1868 105.074 53.4865C104.399 50.9139 103.709 47.4392 103.709 47.4392L102.373 42.3145C102.373 42.3145 102.237 40.4205 102.71 39.8762L102.709 39.8706Z" fill="#F44785"/>
<path d="M106.316 33.409L105.551 35.5068L104.462 35.6371L103.402 35.6805L103.273 35.3632L103.35 35.1453L102.791 33.2521L102.904 32.2671L102.525 30.8728L105.275 30.7857L106.079 30.966L106.414 31.2839L106.316 33.409Z" fill="#F9C2C5"/>
<path d="M107.966 36.088C108.539 36.325 108.391 37.1311 107.633 37.8816C106.876 38.6321 105.801 39.0497 105.228 38.8128C104.656 38.5758 104.804 37.7697 105.561 37.0192C106.319 36.2687 107.394 35.8511 107.966 36.088Z" fill="#F9C2C5"/>
<path d="M105.217 38.8091C105.787 39.0582 106.872 38.6386 107.633 37.8816C108.061 37.4561 108.295 37.0105 108.315 36.6642L107.019 33.6031C106.734 33.0899 104.412 33.8134 104.575 34.4375C104.944 35.8625 105.217 38.8091 105.217 38.8091Z" fill="#F9C2C5"/>
<path d="M107.474 29.9119C108.075 30.7756 108.357 33.9815 107.463 34.6657C106.717 35.2341 105.514 35.6069 105.176 35.1678C103.976 33.6138 103.396 31.0229 104.004 30.1447C105.209 28.4256 106.476 28.4928 107.469 29.9128L107.474 29.9119Z" fill="#AF7272"/>
<path d="M105.322 35.3077C105.322 35.3077 105.593 33.3811 105.559 32.7553C105.498 31.5894 104.731 30.5663 104.06 30.4821C103.769 30.4457 103.764 31.7231 103.764 31.7231L103.675 32.7789C103.794 33.1793 104.87 35.1054 105.322 35.3077Z" fill="#AF7272"/>
<path d="M104.184 33.0629C103.625 34.0882 103.58 32.9829 103.606 32.7168C103.632 32.4507 103.72 32.1609 103.908 32.281C104.316 32.5442 104.275 32.8943 104.189 33.0619L104.184 33.0629Z" fill="#F9C2C5"/>
<path d="M102.815 31.6752C103.104 31.7815 104.337 31.751 104.903 31.6875C105.782 31.5922 106.144 30.9824 106.281 30.6251C106.462 30.149 105.635 28.4181 104.629 28.9211C103.48 29.4922 102.849 29.5626 102.849 29.5626L102.681 29.2586C102.681 29.2586 102.289 29.7118 102.189 29.9112C101.922 30.4271 102.16 31.4369 102.821 31.6798L102.815 31.6752Z" fill="#AF7272"/>
<path d="M87.2035 26.7352C87.2899 27.4726 87.7485 27.7607 88.2225 27.3844C88.7014 27.0071 89.0176 26.1102 88.9312 25.3728C88.8447 24.6353 88.3912 24.3463 87.9122 24.7236C87.4332 25.1009 87.1171 25.9977 87.2035 26.7352Z" fill="#FFBE2C"/>
<path d="M89.5259 28.3032L87.5875 27.4903L88.4776 24.579L90.3907 25.3678L89.5259 28.3032Z" fill="#FFBE2C"/>
<path d="M89.0812 27.5019C89.1676 28.2393 89.6261 28.5274 90.1001 28.1511C90.5791 27.7738 90.8953 26.8769 90.8088 26.1395C90.7224 25.402 90.2689 25.113 89.7899 25.4903C89.3109 25.8676 88.9948 26.7644 89.0812 27.5019Z" fill="#EA9E06"/>
<path d="M89.3817 27.3739C89.4487 27.9585 89.8125 28.1837 90.189 27.8901C90.5644 27.591 90.8186 26.8802 90.7516 26.2956C90.6845 25.7111 90.3208 25.4858 89.9443 25.7794C89.5688 26.0786 89.3146 26.7893 89.3817 27.3739Z" fill="#FFBE2C"/>
<path d="M93.6165 29.6207L89.6884 27.97L90.3925 25.6692L94.3014 27.3004L93.6165 29.6207Z" fill="#FFBE2C"/>
<path d="M93.2674 28.9923C93.3345 29.5768 93.6982 29.8021 94.0747 29.5085C94.4502 29.2093 94.7044 28.4986 94.6373 27.914C94.5703 27.3294 94.2065 27.1042 93.83 27.3978C93.4546 27.697 93.2003 28.4077 93.2674 28.9923Z" fill="#EA9E06"/>
<path d="M93.4835 28.9097C93.5323 29.3469 93.8084 29.5196 94.0902 29.2966C94.3721 29.0736 94.5622 28.5377 94.5134 28.1005C94.4646 27.6632 94.1885 27.4906 93.9067 27.7135C93.6248 27.9365 93.4347 28.4724 93.4835 28.9097Z" fill="#FFBE2C"/>
<path d="M97.5204 30.9338L93.7151 29.3579L94.2467 27.6301L98.0338 29.1922L97.5204 30.9338Z" fill="#FFBE2C"/>
<path d="M97.2585 30.4625C97.3073 30.8998 97.5834 31.0724 97.8653 30.8495C98.1471 30.6265 98.3372 30.0906 98.2884 29.6533C98.2397 29.2161 97.9636 29.0434 97.6817 29.2664C97.3999 29.4894 97.2097 30.0253 97.2585 30.4625Z" fill="#EA9E06"/>
<path d="M97.5108 30.3265C97.5441 30.6043 97.7155 30.7161 97.8938 30.5712C98.0732 30.432 98.1926 30.0897 98.1593 29.8119C98.126 29.534 97.9546 29.4223 97.7763 29.5671C97.5969 29.7064 97.4775 30.0487 97.5108 30.3265Z" fill="#FFBE2C"/>
<path d="M101.978 32.3889L97.6589 30.611L97.9929 29.5135L102.301 31.2877L101.978 32.3889Z" fill="#FFBE2C"/>
<path d="M101.812 32.0905C101.845 32.3683 102.017 32.4801 102.195 32.3352C102.375 32.1959 102.494 31.8537 102.461 31.5758C102.427 31.298 102.256 31.1863 102.078 31.3311C101.898 31.4704 101.779 31.8127 101.812 32.0905Z" fill="#EA9E06"/>
<path d="M101.99 31.9456C102.004 32.0705 102.081 32.1195 102.162 32.0574C102.243 31.9953 102.295 31.84 102.282 31.7207C102.268 31.5958 102.192 31.5468 102.111 31.6089C102.03 31.6711 101.977 31.8263 101.99 31.9456Z" fill="#D98417"/>
<path d="M95.259 31.9125L96.3273 39.3808L98.6211 37.9839L97.0195 31.942L95.259 31.9125Z" fill="#F9C2C5"/>
<path d="M95.259 31.9125L95.0902 30.3788C95.0902 30.3788 95.125 29.4148 95.1919 29.2278C95.2197 29.1585 95.4098 29.1274 95.6233 28.8713C95.7536 28.7184 96.6005 28.4553 96.6005 28.4553C96.6005 28.4553 97.3682 28.6079 97.5647 28.796C97.6093 28.8395 97.6683 29.037 97.6683 29.037C97.6683 29.037 97.5919 28.9358 97.3186 29.07C97.0265 29.2138 96.7469 30.0861 97.0882 30.7277C97.3105 31.1545 97.0245 31.941 97.0245 31.941L95.264 31.9116L95.259 31.9125Z" fill="#F9C2C5"/>
<path d="M95.9922 39.1442C95.9753 39.4028 96.1733 39.8111 96.3538 39.9965C103.067 46.8734 104.221 45.1583 104.802 43.6066C105.079 42.8565 104.695 41.063 102.886 39.8013C101.931 39.134 99.6122 38.0119 98.6682 37.2437C98.3681 37.0003 98.1155 37.0552 97.0331 37.7005C96.3995 38.0788 96.0232 38.6393 95.9983 39.1488L95.9922 39.1442Z" fill="#F44785"/>
<path d="M99.0928 29.2767C98.9187 29.3105 98.6266 29.6399 98.6028 29.836C98.597 29.9126 98.7439 30.0581 98.8123 30.4103C98.8536 30.6228 99.0078 30.5928 99.0822 30.6306C99.1847 30.6803 99.3638 30.6455 99.5687 30.7972C99.6051 30.8249 100.063 30.8462 100.124 30.8113C100.165 30.7858 100.323 30.697 100.364 30.5615C100.396 30.4568 100.392 30.3588 100.363 30.1846C100.341 30.0438 100.289 30.0134 100.223 30.0203C100.141 30.0246 100.08 30.1351 100.065 30.4048C100.065 30.4048 100.07 30.1893 100.223 30.0203C100.422 29.796 100.541 30.2487 100.764 30.0951C101.128 29.8446 99.5316 29.1973 99.0939 29.2823L99.0928 29.2767Z" fill="#F9C2C5"/>
<path d="M268.517 41.3729H269.53V45.2458H268.517V41.3729Z" fill="#FFD124"/>
<path d="M268.517 50.5197H269.53V54.3926H268.517V50.5197Z" fill="#FFD124"/>
<path d="M271.369 47.3132H274.814V48.4523H271.369V47.3132Z" fill="#FFD124"/>
<path d="M263.233 47.3132H266.678V48.4523H263.233V47.3132Z" fill="#FFD124"/>
<path d="M75.9896 117.122H77.0029V120.995H75.9896V117.122Z" fill="#FFD124"/>
<path d="M75.9896 126.269H77.0029V130.141H75.9896V126.269Z" fill="#FFD124"/>
<path d="M78.8421 123.062H82.2874V124.201H78.8421V123.062Z" fill="#FFD124"/>
<path d="M70.7053 123.062H74.1505V124.201H70.7053V123.062Z" fill="#FFD124"/>
<path d="M70.923 19.7304H71.9363V22.5838H70.923V19.7304Z" fill="#FFD124"/>
<path d="M70.923 26.4794H71.9363V29.3328H70.923V26.4794Z" fill="#FFD124"/>
<path d="M73.1624 23.9621H75.7007V25.1011H73.1624V23.9621Z" fill="#FFD124"/>
<path d="M67.1586 23.9621H69.6969V25.1011H67.1586V23.9621Z" fill="#FFD124"/>
<path d="M36.8052 118.597C39.7995 118.597 42.2416 115.857 42.2416 112.486C42.2416 109.114 39.8046 106.375 36.8052 106.375C33.8059 106.375 31.3689 109.114 31.3689 112.486C31.3689 115.857 33.8059 118.597 36.8052 118.597ZM36.8052 107.519C39.2422 107.519 41.2283 109.746 41.2283 112.491C41.2283 115.237 39.2473 117.464 36.8052 117.464C34.3632 117.464 32.3822 115.237 32.3822 112.491C32.3822 109.746 34.3632 107.519 36.8052 107.519Z" fill="#8A81F7"/>
<path d="M43.1382 197.917C45.2358 197.917 46.9381 196.003 46.9381 193.645C46.9381 191.287 45.2358 189.374 43.1382 189.374C41.0407 189.374 39.3383 191.287 39.3383 193.645C39.3383 196.003 41.0407 197.917 43.1382 197.917ZM43.1382 190.513C44.6734 190.513 45.9248 191.92 45.9248 193.645C45.9248 195.371 44.6734 196.778 43.1382 196.778C41.6031 196.778 40.3517 195.371 40.3517 193.645C40.3517 191.92 41.6031 190.513 43.1382 190.513Z" fill="#8A81F7"/>
<path d="M218.581 102.804C220.679 102.804 222.381 100.89 222.381 98.532C222.381 96.1741 220.679 94.2604 218.581 94.2604C216.484 94.2604 214.781 96.1741 214.781 98.532C214.781 100.89 216.484 102.804 218.581 102.804ZM218.581 95.3995C220.117 95.3995 221.368 96.8063 221.368 98.532C221.368 100.258 220.117 101.664 218.581 101.664C217.046 101.664 215.795 100.258 215.795 98.532C215.795 96.8063 217.046 95.3995 218.581 95.3995Z" fill="#FFD124"/>
<defs>
<linearGradient id="paint0_linear_42_52" x1="31.5254" y1="18.1285" x2="183.417" y2="80.3767" gradientUnits="userSpaceOnUse">
<stop stop-color="#DCB3FF"/>
<stop offset="0.24" stop-color="#CFBFFF"/>
<stop offset="0.68" stop-color="#AEE2FF"/>
<stop offset="1" stop-color="#93FFFF"/>
</linearGradient>
<linearGradient id="paint1_linear_42_52" x1="88.8677" y1="32.7823" x2="104.541" y2="113.493" gradientUnits="userSpaceOnUse">
<stop stop-color="#766DF7"/>
<stop offset="0.24" stop-color="#7679F7"/>
<stop offset="0.69" stop-color="#769CF7"/>
<stop offset="1" stop-color="#76B7F8"/>
</linearGradient>
</defs>
</svg>
